<?xml version="1.0" encoding="UTF-8"?>
<svg width="617px" height="724px" viewBox="0 0 617 724" version="1.1" xmlns="http://www.w3.org/2000/svg" xmlns:xlink="http://www.w3.org/1999/xlink">
    <!-- Generator: Sketch 47.1 (45422) - http://www.bohemiancoding.com/sketch -->
    <title>onlinehandel</title>
    <desc>Created with Sketch.</desc>
    <defs></defs>
    <g id="Page-1" stroke="none" stroke-width="1" fill="none" fill-rule="evenodd">
        <path d="M308.522206,723.621643 C511.126694,602.748981 613.779835,460.535891 616.481628,296.982371 C611.057926,210.090669 590.669149,147.228351 555.315295,108.395416 C511.379691,60.1362226 445.588675,0.214030926 308.522206,0.214030926 C146.43866,0.214030926 60.117789,91.38948 24.2208125,175.613537 C-3.9542729,241.71994 0.843184341,296.982371 1.14762618,296.982371 C1.36350765,296.982371 2.28934144,360.486783 24.2208125,426.83392 C37.9302934,468.307873 63.4814615,508.351308 90.9899732,542.527131 C162.504683,631.375053 308.522206,723.621643 308.522206,723.621643 Z" id="Path" fill="#000000"></path>
        <polygon id="Path-2" fill="#FFFFFF" points="311.194312 94.8083295 508.386762 192.994832 508.386762 431.54949 311.194312 526.644705 109.865077 431.54949 109.865077 192.994832"></polygon>
        <polygon id="Path-3" fill="#000000" points="310.001878 136.68481 461.633168 208.423009 310.001878 282.133527 161.156702 208.423009"></polygon>
        <polygon id="Path-4" fill="#000000" points="323.254287 300.212186 474.518239 224.857126 474.518239 407.666897 323.254287 482.242072"></polygon>
        <polygon id="Path-5" fill="#000000" points="144.134845 225.823506 300.157232 301.449831 300.157232 482.377704 144.134845 408.345059"></polygon>
    </g>
</svg>